<mxfile host="Electron" agent="Mozilla/5.0 (Windows NT 10.0; Win64; x64) AppleWebKit/537.36 (KHTML, like Gecko) draw.io/24.7.17 Chrome/128.0.6613.36 Electron/32.0.1 Safari/537.36" version="24.7.17">
  <diagram name="Page-1" id="2YBvvXClWsGukQMizWep">
    <mxGraphModel dx="2074" dy="1204" grid="1" gridSize="10" guides="1" tooltips="1" connect="1" arrows="1" fold="1" page="1" pageScale="1" pageWidth="850" pageHeight="1100" math="0" shadow="0">
      <root>
        <mxCell id="0" />
        <mxCell id="1" parent="0" />
        <mxCell id="aM9ryv3xv72pqoxQDRHE-1" value="CONTROLLER" style="shape=umlLifeline;perimeter=lifelinePerimeter;whiteSpace=wrap;html=1;container=0;dropTarget=0;collapsible=0;recursiveResize=0;outlineConnect=0;portConstraint=eastwest;newEdgeStyle={&quot;edgeStyle&quot;:&quot;elbowEdgeStyle&quot;,&quot;elbow&quot;:&quot;vertical&quot;,&quot;curved&quot;:0,&quot;rounded&quot;:0};" parent="1" vertex="1">
          <mxGeometry x="270" y="90" width="110" height="300" as="geometry" />
        </mxCell>
        <mxCell id="aM9ryv3xv72pqoxQDRHE-2" value="" style="html=1;points=[];perimeter=orthogonalPerimeter;outlineConnect=0;targetShapes=umlLifeline;portConstraint=eastwest;newEdgeStyle={&quot;edgeStyle&quot;:&quot;elbowEdgeStyle&quot;,&quot;elbow&quot;:&quot;vertical&quot;,&quot;curved&quot;:0,&quot;rounded&quot;:0};" parent="aM9ryv3xv72pqoxQDRHE-1" vertex="1">
          <mxGeometry x="45" y="70" width="10" height="180" as="geometry" />
        </mxCell>
        <mxCell id="aM9ryv3xv72pqoxQDRHE-5" value="SERVICE" style="shape=umlLifeline;perimeter=lifelinePerimeter;whiteSpace=wrap;html=1;container=0;dropTarget=0;collapsible=0;recursiveResize=0;outlineConnect=0;portConstraint=eastwest;newEdgeStyle={&quot;edgeStyle&quot;:&quot;elbowEdgeStyle&quot;,&quot;elbow&quot;:&quot;vertical&quot;,&quot;curved&quot;:0,&quot;rounded&quot;:0};" parent="1" vertex="1">
          <mxGeometry x="450" y="90" width="130" height="300" as="geometry" />
        </mxCell>
        <mxCell id="aM9ryv3xv72pqoxQDRHE-6" value="" style="html=1;points=[];perimeter=orthogonalPerimeter;outlineConnect=0;targetShapes=umlLifeline;portConstraint=eastwest;newEdgeStyle={&quot;edgeStyle&quot;:&quot;elbowEdgeStyle&quot;,&quot;elbow&quot;:&quot;vertical&quot;,&quot;curved&quot;:0,&quot;rounded&quot;:0};" parent="aM9ryv3xv72pqoxQDRHE-5" vertex="1">
          <mxGeometry x="45" y="80" width="10" height="60" as="geometry" />
        </mxCell>
        <mxCell id="aM9ryv3xv72pqoxQDRHE-7" value="getbalance(cuentaId)" style="html=1;verticalAlign=bottom;endArrow=block;edgeStyle=elbowEdgeStyle;elbow=horizontal;curved=0;rounded=0;" parent="1" source="aM9ryv3xv72pqoxQDRHE-2" target="aM9ryv3xv72pqoxQDRHE-6" edge="1">
          <mxGeometry relative="1" as="geometry">
            <mxPoint x="425" y="180" as="sourcePoint" />
            <Array as="points">
              <mxPoint x="410" y="170" />
            </Array>
          </mxGeometry>
        </mxCell>
        <mxCell id="J7sA12TsJqCwHjDUouRt-1" value="REPOSITORY" style="shape=umlLifeline;perimeter=lifelinePerimeter;whiteSpace=wrap;html=1;container=0;dropTarget=0;collapsible=0;recursiveResize=0;outlineConnect=0;portConstraint=eastwest;newEdgeStyle={&quot;edgeStyle&quot;:&quot;elbowEdgeStyle&quot;,&quot;elbow&quot;:&quot;vertical&quot;,&quot;curved&quot;:0,&quot;rounded&quot;:0};" parent="1" vertex="1">
          <mxGeometry x="630" y="90" width="130" height="300" as="geometry" />
        </mxCell>
        <mxCell id="J7sA12TsJqCwHjDUouRt-2" value="" style="html=1;points=[];perimeter=orthogonalPerimeter;outlineConnect=0;targetShapes=umlLifeline;portConstraint=eastwest;newEdgeStyle={&quot;edgeStyle&quot;:&quot;elbowEdgeStyle&quot;,&quot;elbow&quot;:&quot;vertical&quot;,&quot;curved&quot;:0,&quot;rounded&quot;:0};" parent="J7sA12TsJqCwHjDUouRt-1" vertex="1">
          <mxGeometry x="45" y="80" width="10" height="70" as="geometry" />
        </mxCell>
        <mxCell id="aM9ryv3xv72pqoxQDRHE-3" value="Request Consulta Saldo (getAccountBalance)" style="html=1;verticalAlign=bottom;startArrow=oval;endArrow=block;startSize=8;edgeStyle=elbowEdgeStyle;elbow=vertical;curved=0;rounded=0;" parent="1" target="aM9ryv3xv72pqoxQDRHE-2" edge="1">
          <mxGeometry relative="1" as="geometry">
            <mxPoint x="100" y="160" as="sourcePoint" />
          </mxGeometry>
        </mxCell>
        <mxCell id="J7sA12TsJqCwHjDUouRt-5" value="Cliente" style="shape=umlActor;verticalLabelPosition=bottom;verticalAlign=top;html=1;outlineConnect=0;" parent="1" vertex="1">
          <mxGeometry x="50" y="150" width="30" height="60" as="geometry" />
        </mxCell>
        <mxCell id="J7sA12TsJqCwHjDUouRt-7" value="Saldo del Cliente" style="html=1;verticalAlign=bottom;endArrow=block;edgeStyle=elbowEdgeStyle;elbow=vertical;curved=0;rounded=0;dashed=1;" parent="1" edge="1">
          <mxGeometry relative="1" as="geometry">
            <mxPoint x="314" y="200" as="sourcePoint" />
            <Array as="points">
              <mxPoint x="249" y="200" />
            </Array>
            <mxPoint x="100" y="200" as="targetPoint" />
          </mxGeometry>
        </mxCell>
        <mxCell id="J7sA12TsJqCwHjDUouRt-8" value="SOLICITAR SALDO&lt;br&gt;(accountservice)" style="rounded=0;whiteSpace=wrap;html=1;" parent="1" vertex="1">
          <mxGeometry x="40" y="50" width="120" height="70" as="geometry" />
        </mxCell>
        <mxCell id="J7sA12TsJqCwHjDUouRt-9" value="CONTROLLER" style="shape=umlLifeline;perimeter=lifelinePerimeter;whiteSpace=wrap;html=1;container=0;dropTarget=0;collapsible=0;recursiveResize=0;outlineConnect=0;portConstraint=eastwest;newEdgeStyle={&quot;edgeStyle&quot;:&quot;elbowEdgeStyle&quot;,&quot;elbow&quot;:&quot;vertical&quot;,&quot;curved&quot;:0,&quot;rounded&quot;:0};" parent="1" vertex="1">
          <mxGeometry x="310" y="490" width="115" height="360" as="geometry" />
        </mxCell>
        <mxCell id="J7sA12TsJqCwHjDUouRt-10" value="" style="html=1;points=[];perimeter=orthogonalPerimeter;outlineConnect=0;targetShapes=umlLifeline;portConstraint=eastwest;newEdgeStyle={&quot;edgeStyle&quot;:&quot;elbowEdgeStyle&quot;,&quot;elbow&quot;:&quot;vertical&quot;,&quot;curved&quot;:0,&quot;rounded&quot;:0};" parent="J7sA12TsJqCwHjDUouRt-9" vertex="1">
          <mxGeometry x="45" y="70" width="10" height="190" as="geometry" />
        </mxCell>
        <mxCell id="J7sA12TsJqCwHjDUouRt-11" value="" style="html=1;points=[];perimeter=orthogonalPerimeter;outlineConnect=0;targetShapes=umlLifeline;portConstraint=eastwest;newEdgeStyle={&quot;edgeStyle&quot;:&quot;elbowEdgeStyle&quot;,&quot;elbow&quot;:&quot;vertical&quot;,&quot;curved&quot;:0,&quot;rounded&quot;:0};" parent="J7sA12TsJqCwHjDUouRt-9" vertex="1">
          <mxGeometry x="50" y="120" width="10" height="80" as="geometry" />
        </mxCell>
        <mxCell id="J7sA12TsJqCwHjDUouRt-12" value="SERVICE" style="shape=umlLifeline;perimeter=lifelinePerimeter;whiteSpace=wrap;html=1;container=0;dropTarget=0;collapsible=0;recursiveResize=0;outlineConnect=0;portConstraint=eastwest;newEdgeStyle={&quot;edgeStyle&quot;:&quot;elbowEdgeStyle&quot;,&quot;elbow&quot;:&quot;vertical&quot;,&quot;curved&quot;:0,&quot;rounded&quot;:0};" parent="1" vertex="1">
          <mxGeometry x="490" y="490" width="140" height="360" as="geometry" />
        </mxCell>
        <mxCell id="J7sA12TsJqCwHjDUouRt-13" value="" style="html=1;points=[];perimeter=orthogonalPerimeter;outlineConnect=0;targetShapes=umlLifeline;portConstraint=eastwest;newEdgeStyle={&quot;edgeStyle&quot;:&quot;elbowEdgeStyle&quot;,&quot;elbow&quot;:&quot;vertical&quot;,&quot;curved&quot;:0,&quot;rounded&quot;:0};" parent="J7sA12TsJqCwHjDUouRt-12" vertex="1">
          <mxGeometry x="45" y="80" width="10" height="170" as="geometry" />
        </mxCell>
        <mxCell id="J7sA12TsJqCwHjDUouRt-14" value="makePayment(id,paymentamount)" style="html=1;verticalAlign=bottom;endArrow=block;edgeStyle=elbowEdgeStyle;elbow=vertical;curved=0;rounded=0;" parent="1" source="J7sA12TsJqCwHjDUouRt-10" target="J7sA12TsJqCwHjDUouRt-13" edge="1">
          <mxGeometry x="0.0017" relative="1" as="geometry">
            <mxPoint x="480" y="580" as="sourcePoint" />
            <Array as="points">
              <mxPoint x="465" y="570" />
            </Array>
            <mxPoint as="offset" />
          </mxGeometry>
        </mxCell>
        <mxCell id="J7sA12TsJqCwHjDUouRt-16" value="REPOSTITORY" style="shape=umlLifeline;perimeter=lifelinePerimeter;whiteSpace=wrap;html=1;container=0;dropTarget=0;collapsible=0;recursiveResize=0;outlineConnect=0;portConstraint=eastwest;newEdgeStyle={&quot;edgeStyle&quot;:&quot;elbowEdgeStyle&quot;,&quot;elbow&quot;:&quot;vertical&quot;,&quot;curved&quot;:0,&quot;rounded&quot;:0};" parent="1" vertex="1">
          <mxGeometry x="710" y="490" width="135" height="360" as="geometry" />
        </mxCell>
        <mxCell id="J7sA12TsJqCwHjDUouRt-17" value="" style="html=1;points=[];perimeter=orthogonalPerimeter;outlineConnect=0;targetShapes=umlLifeline;portConstraint=eastwest;newEdgeStyle={&quot;edgeStyle&quot;:&quot;elbowEdgeStyle&quot;,&quot;elbow&quot;:&quot;vertical&quot;,&quot;curved&quot;:0,&quot;rounded&quot;:0};" parent="J7sA12TsJqCwHjDUouRt-16" vertex="1">
          <mxGeometry x="45" y="80" width="10" height="170" as="geometry" />
        </mxCell>
        <mxCell id="J7sA12TsJqCwHjDUouRt-18" value="findById(operation)" style="html=1;verticalAlign=bottom;endArrow=block;edgeStyle=elbowEdgeStyle;elbow=vertical;curved=0;rounded=0;" parent="1" edge="1">
          <mxGeometry x="0.0033" relative="1" as="geometry">
            <mxPoint x="540" y="570.29" as="sourcePoint" />
            <Array as="points">
              <mxPoint x="550" y="570" />
            </Array>
            <mxPoint x="760" y="570" as="targetPoint" />
            <mxPoint as="offset" />
          </mxGeometry>
        </mxCell>
        <mxCell id="J7sA12TsJqCwHjDUouRt-19" value="Pagar Producto de Credito (payment)" style="html=1;verticalAlign=bottom;startArrow=oval;endArrow=block;startSize=8;edgeStyle=elbowEdgeStyle;elbow=vertical;curved=0;rounded=0;" parent="1" target="J7sA12TsJqCwHjDUouRt-10" edge="1">
          <mxGeometry x="0.0032" relative="1" as="geometry">
            <mxPoint x="130" y="570" as="sourcePoint" />
            <Array as="points">
              <mxPoint x="250" y="570" />
            </Array>
            <mxPoint as="offset" />
          </mxGeometry>
        </mxCell>
        <mxCell id="J7sA12TsJqCwHjDUouRt-21" value="Cliente" style="shape=umlActor;verticalLabelPosition=bottom;verticalAlign=top;html=1;outlineConnect=0;" parent="1" vertex="1">
          <mxGeometry x="85" y="550" width="30" height="60" as="geometry" />
        </mxCell>
        <mxCell id="J7sA12TsJqCwHjDUouRt-22" value="Respuesta Cliente Ok" style="html=1;verticalAlign=bottom;endArrow=block;edgeStyle=elbowEdgeStyle;elbow=vertical;curved=0;rounded=0;dashed=1;" parent="1" edge="1">
          <mxGeometry relative="1" as="geometry">
            <mxPoint x="294" y="700" as="sourcePoint" />
            <Array as="points">
              <mxPoint x="229" y="700" />
            </Array>
            <mxPoint x="115" y="630" as="targetPoint" />
          </mxGeometry>
        </mxCell>
        <mxCell id="J7sA12TsJqCwHjDUouRt-23" value="PAGO PRODUCTO CREDITO&lt;div&gt;(creditservice)&lt;/div&gt;" style="rounded=0;whiteSpace=wrap;html=1;" parent="1" vertex="1">
          <mxGeometry x="40" y="400" width="120" height="80" as="geometry" />
        </mxCell>
        <mxCell id="J7sA12TsJqCwHjDUouRt-24" value="response()" style="html=1;verticalAlign=bottom;endArrow=block;edgeStyle=elbowEdgeStyle;elbow=vertical;curved=0;rounded=0;dashed=1;" parent="1" edge="1">
          <mxGeometry relative="1" as="geometry">
            <mxPoint x="760" y="609" as="sourcePoint" />
            <Array as="points">
              <mxPoint x="640" y="609" />
            </Array>
            <mxPoint x="540" y="609" as="targetPoint" />
          </mxGeometry>
        </mxCell>
        <mxCell id="J7sA12TsJqCwHjDUouRt-25" value="Error Saldo no disponible&amp;nbsp;&lt;div&gt;u otro motivo&lt;/div&gt;" style="html=1;verticalAlign=bottom;endArrow=block;edgeStyle=elbowEdgeStyle;elbow=vertical;curved=0;rounded=0;dashed=1;" parent="1" edge="1">
          <mxGeometry x="0.004" relative="1" as="geometry">
            <mxPoint x="289" y="750" as="sourcePoint" />
            <Array as="points">
              <mxPoint x="224" y="750" />
            </Array>
            <mxPoint x="100" y="690" as="targetPoint" />
            <mxPoint as="offset" />
          </mxGeometry>
        </mxCell>
        <mxCell id="1kuVa8GH8NHrZ08HFkGU-1" value="CONTROLLER" style="shape=umlLifeline;perimeter=lifelinePerimeter;whiteSpace=wrap;html=1;container=0;dropTarget=0;collapsible=0;recursiveResize=0;outlineConnect=0;portConstraint=eastwest;newEdgeStyle={&quot;edgeStyle&quot;:&quot;elbowEdgeStyle&quot;,&quot;elbow&quot;:&quot;vertical&quot;,&quot;curved&quot;:0,&quot;rounded&quot;:0};" parent="1" vertex="1">
          <mxGeometry x="240" y="990" width="115" height="360" as="geometry" />
        </mxCell>
        <mxCell id="1kuVa8GH8NHrZ08HFkGU-2" value="" style="html=1;points=[];perimeter=orthogonalPerimeter;outlineConnect=0;targetShapes=umlLifeline;portConstraint=eastwest;newEdgeStyle={&quot;edgeStyle&quot;:&quot;elbowEdgeStyle&quot;,&quot;elbow&quot;:&quot;vertical&quot;,&quot;curved&quot;:0,&quot;rounded&quot;:0};" parent="1kuVa8GH8NHrZ08HFkGU-1" vertex="1">
          <mxGeometry x="45" y="70" width="10" height="190" as="geometry" />
        </mxCell>
        <mxCell id="1kuVa8GH8NHrZ08HFkGU-3" value="" style="html=1;points=[];perimeter=orthogonalPerimeter;outlineConnect=0;targetShapes=umlLifeline;portConstraint=eastwest;newEdgeStyle={&quot;edgeStyle&quot;:&quot;elbowEdgeStyle&quot;,&quot;elbow&quot;:&quot;vertical&quot;,&quot;curved&quot;:0,&quot;rounded&quot;:0};" parent="1kuVa8GH8NHrZ08HFkGU-1" vertex="1">
          <mxGeometry x="50" y="120" width="10" height="80" as="geometry" />
        </mxCell>
        <mxCell id="1kuVa8GH8NHrZ08HFkGU-4" value="SERVICE" style="shape=umlLifeline;perimeter=lifelinePerimeter;whiteSpace=wrap;html=1;container=0;dropTarget=0;collapsible=0;recursiveResize=0;outlineConnect=0;portConstraint=eastwest;newEdgeStyle={&quot;edgeStyle&quot;:&quot;elbowEdgeStyle&quot;,&quot;elbow&quot;:&quot;vertical&quot;,&quot;curved&quot;:0,&quot;rounded&quot;:0};" parent="1" vertex="1">
          <mxGeometry x="530" y="1000" width="130" height="360" as="geometry" />
        </mxCell>
        <mxCell id="1kuVa8GH8NHrZ08HFkGU-5" value="" style="html=1;points=[];perimeter=orthogonalPerimeter;outlineConnect=0;targetShapes=umlLifeline;portConstraint=eastwest;newEdgeStyle={&quot;edgeStyle&quot;:&quot;elbowEdgeStyle&quot;,&quot;elbow&quot;:&quot;vertical&quot;,&quot;curved&quot;:0,&quot;rounded&quot;:0};" parent="1kuVa8GH8NHrZ08HFkGU-4" vertex="1">
          <mxGeometry x="45" y="80" width="10" height="170" as="geometry" />
        </mxCell>
        <mxCell id="1kuVa8GH8NHrZ08HFkGU-6" value="getTransactionByAccounid(cuentaId)" style="html=1;verticalAlign=bottom;endArrow=block;edgeStyle=elbowEdgeStyle;elbow=vertical;curved=0;rounded=0;" parent="1" source="1kuVa8GH8NHrZ08HFkGU-2" target="1kuVa8GH8NHrZ08HFkGU-5" edge="1">
          <mxGeometry x="0.0017" relative="1" as="geometry">
            <mxPoint x="410" y="1080" as="sourcePoint" />
            <Array as="points">
              <mxPoint x="395" y="1070" />
            </Array>
            <mxPoint as="offset" />
          </mxGeometry>
        </mxCell>
        <mxCell id="1kuVa8GH8NHrZ08HFkGU-8" value="REPOSITORY" style="shape=umlLifeline;perimeter=lifelinePerimeter;whiteSpace=wrap;html=1;container=0;dropTarget=0;collapsible=0;recursiveResize=0;outlineConnect=0;portConstraint=eastwest;newEdgeStyle={&quot;edgeStyle&quot;:&quot;elbowEdgeStyle&quot;,&quot;elbow&quot;:&quot;vertical&quot;,&quot;curved&quot;:0,&quot;rounded&quot;:0};" parent="1" vertex="1">
          <mxGeometry x="750" y="1000" width="135" height="360" as="geometry" />
        </mxCell>
        <mxCell id="1kuVa8GH8NHrZ08HFkGU-9" value="" style="html=1;points=[];perimeter=orthogonalPerimeter;outlineConnect=0;targetShapes=umlLifeline;portConstraint=eastwest;newEdgeStyle={&quot;edgeStyle&quot;:&quot;elbowEdgeStyle&quot;,&quot;elbow&quot;:&quot;vertical&quot;,&quot;curved&quot;:0,&quot;rounded&quot;:0};" parent="1kuVa8GH8NHrZ08HFkGU-8" vertex="1">
          <mxGeometry x="45" y="80" width="10" height="170" as="geometry" />
        </mxCell>
        <mxCell id="1kuVa8GH8NHrZ08HFkGU-10" value="finByAccountId" style="html=1;verticalAlign=bottom;endArrow=block;edgeStyle=elbowEdgeStyle;elbow=vertical;curved=0;rounded=0;" parent="1" edge="1">
          <mxGeometry x="0.0033" relative="1" as="geometry">
            <mxPoint x="587.5" y="1090.29" as="sourcePoint" />
            <Array as="points">
              <mxPoint x="607.5" y="1090" />
            </Array>
            <mxPoint x="802.5" y="1090" as="targetPoint" />
            <mxPoint as="offset" />
          </mxGeometry>
        </mxCell>
        <mxCell id="1kuVa8GH8NHrZ08HFkGU-11" value="ConsultaMovimientos" style="html=1;verticalAlign=bottom;startArrow=oval;endArrow=block;startSize=8;edgeStyle=elbowEdgeStyle;elbow=vertical;curved=0;rounded=0;" parent="1" target="1kuVa8GH8NHrZ08HFkGU-2" edge="1">
          <mxGeometry x="0.0032" relative="1" as="geometry">
            <mxPoint x="120" y="1070" as="sourcePoint" />
            <Array as="points">
              <mxPoint x="240" y="1070" />
            </Array>
            <mxPoint as="offset" />
          </mxGeometry>
        </mxCell>
        <mxCell id="1kuVa8GH8NHrZ08HFkGU-13" value="Cliente" style="shape=umlActor;verticalLabelPosition=bottom;verticalAlign=top;html=1;outlineConnect=0;" parent="1" vertex="1">
          <mxGeometry x="75" y="1050" width="30" height="60" as="geometry" />
        </mxCell>
        <mxCell id="1kuVa8GH8NHrZ08HFkGU-14" value="Respuesta Movimientos Ok" style="html=1;verticalAlign=bottom;endArrow=block;edgeStyle=elbowEdgeStyle;elbow=vertical;curved=0;rounded=0;dashed=1;" parent="1" edge="1">
          <mxGeometry relative="1" as="geometry">
            <mxPoint x="284" y="1210" as="sourcePoint" />
            <Array as="points">
              <mxPoint x="219" y="1210" />
            </Array>
            <mxPoint x="105" y="1140" as="targetPoint" />
          </mxGeometry>
        </mxCell>
        <mxCell id="1kuVa8GH8NHrZ08HFkGU-15" value="CONSULTA DE MOVIMIENTOS&lt;br&gt;(transactionservice)" style="rounded=0;whiteSpace=wrap;html=1;" parent="1" vertex="1">
          <mxGeometry x="20" y="890" width="150" height="90" as="geometry" />
        </mxCell>
        <mxCell id="1kuVa8GH8NHrZ08HFkGU-17" value="Error&amp;nbsp;" style="html=1;verticalAlign=bottom;endArrow=block;edgeStyle=elbowEdgeStyle;elbow=vertical;curved=0;rounded=0;dashed=1;" parent="1" edge="1">
          <mxGeometry relative="1" as="geometry">
            <mxPoint x="294" y="1300" as="sourcePoint" />
            <Array as="points">
              <mxPoint x="229" y="1300" />
            </Array>
            <mxPoint x="105" y="1240" as="targetPoint" />
          </mxGeometry>
        </mxCell>
        <mxCell id="1kuVa8GH8NHrZ08HFkGU-35" value="Error Saldo no disponible&amp;nbsp;&lt;div&gt;u otro motivo&lt;/div&gt;" style="html=1;verticalAlign=bottom;endArrow=block;edgeStyle=elbowEdgeStyle;elbow=vertical;curved=0;rounded=0;dashed=1;" parent="1" edge="1">
          <mxGeometry x="0.004" relative="1" as="geometry">
            <mxPoint x="329" y="330" as="sourcePoint" />
            <Array as="points">
              <mxPoint x="264" y="330" />
            </Array>
            <mxPoint x="90" y="260" as="targetPoint" />
            <mxPoint as="offset" />
          </mxGeometry>
        </mxCell>
        <mxCell id="1kuVa8GH8NHrZ08HFkGU-83" value="Mono(AccounProduct)" style="html=1;verticalAlign=bottom;endArrow=block;edgeStyle=elbowEdgeStyle;elbow=horizontal;curved=0;rounded=0;dashed=1;" parent="1" edge="1">
          <mxGeometry relative="1" as="geometry">
            <mxPoint x="670" y="210" as="sourcePoint" />
            <Array as="points">
              <mxPoint x="595" y="210" />
            </Array>
            <mxPoint x="510" y="211" as="targetPoint" />
          </mxGeometry>
        </mxCell>
        <mxCell id="1kuVa8GH8NHrZ08HFkGU-114" value="CONTROLLER" style="shape=umlLifeline;perimeter=lifelinePerimeter;whiteSpace=wrap;html=1;container=0;dropTarget=0;collapsible=0;recursiveResize=0;outlineConnect=0;portConstraint=eastwest;newEdgeStyle={&quot;edgeStyle&quot;:&quot;elbowEdgeStyle&quot;,&quot;elbow&quot;:&quot;vertical&quot;,&quot;curved&quot;:0,&quot;rounded&quot;:0};" parent="1" vertex="1">
          <mxGeometry x="1320" y="180" width="115" height="360" as="geometry" />
        </mxCell>
        <mxCell id="1kuVa8GH8NHrZ08HFkGU-115" value="" style="html=1;points=[];perimeter=orthogonalPerimeter;outlineConnect=0;targetShapes=umlLifeline;portConstraint=eastwest;newEdgeStyle={&quot;edgeStyle&quot;:&quot;elbowEdgeStyle&quot;,&quot;elbow&quot;:&quot;vertical&quot;,&quot;curved&quot;:0,&quot;rounded&quot;:0};" parent="1kuVa8GH8NHrZ08HFkGU-114" vertex="1">
          <mxGeometry x="45" y="70" width="10" height="190" as="geometry" />
        </mxCell>
        <mxCell id="1kuVa8GH8NHrZ08HFkGU-116" value="" style="html=1;points=[];perimeter=orthogonalPerimeter;outlineConnect=0;targetShapes=umlLifeline;portConstraint=eastwest;newEdgeStyle={&quot;edgeStyle&quot;:&quot;elbowEdgeStyle&quot;,&quot;elbow&quot;:&quot;vertical&quot;,&quot;curved&quot;:0,&quot;rounded&quot;:0};" parent="1kuVa8GH8NHrZ08HFkGU-114" vertex="1">
          <mxGeometry x="50" y="120" width="10" height="80" as="geometry" />
        </mxCell>
        <mxCell id="1kuVa8GH8NHrZ08HFkGU-117" value="SERVICE" style="shape=umlLifeline;perimeter=lifelinePerimeter;whiteSpace=wrap;html=1;container=0;dropTarget=0;collapsible=0;recursiveResize=0;outlineConnect=0;portConstraint=eastwest;newEdgeStyle={&quot;edgeStyle&quot;:&quot;elbowEdgeStyle&quot;,&quot;elbow&quot;:&quot;vertical&quot;,&quot;curved&quot;:0,&quot;rounded&quot;:0};" parent="1" vertex="1">
          <mxGeometry x="1500" y="180" width="140" height="360" as="geometry" />
        </mxCell>
        <mxCell id="1kuVa8GH8NHrZ08HFkGU-118" value="" style="html=1;points=[];perimeter=orthogonalPerimeter;outlineConnect=0;targetShapes=umlLifeline;portConstraint=eastwest;newEdgeStyle={&quot;edgeStyle&quot;:&quot;elbowEdgeStyle&quot;,&quot;elbow&quot;:&quot;vertical&quot;,&quot;curved&quot;:0,&quot;rounded&quot;:0};" parent="1kuVa8GH8NHrZ08HFkGU-117" vertex="1">
          <mxGeometry x="45" y="80" width="10" height="170" as="geometry" />
        </mxCell>
        <mxCell id="1kuVa8GH8NHrZ08HFkGU-119" value="withdraw(accounid,amount)" style="html=1;verticalAlign=bottom;endArrow=block;edgeStyle=elbowEdgeStyle;elbow=vertical;curved=0;rounded=0;" parent="1" source="1kuVa8GH8NHrZ08HFkGU-115" target="1kuVa8GH8NHrZ08HFkGU-118" edge="1">
          <mxGeometry x="0.0017" relative="1" as="geometry">
            <mxPoint x="1490" y="270" as="sourcePoint" />
            <Array as="points">
              <mxPoint x="1475" y="260" />
            </Array>
            <mxPoint as="offset" />
          </mxGeometry>
        </mxCell>
        <mxCell id="1kuVa8GH8NHrZ08HFkGU-121" value="REPOSTORY" style="shape=umlLifeline;perimeter=lifelinePerimeter;whiteSpace=wrap;html=1;container=0;dropTarget=0;collapsible=0;recursiveResize=0;outlineConnect=0;portConstraint=eastwest;newEdgeStyle={&quot;edgeStyle&quot;:&quot;elbowEdgeStyle&quot;,&quot;elbow&quot;:&quot;vertical&quot;,&quot;curved&quot;:0,&quot;rounded&quot;:0};" parent="1" vertex="1">
          <mxGeometry x="1720" y="180" width="135" height="360" as="geometry" />
        </mxCell>
        <mxCell id="1kuVa8GH8NHrZ08HFkGU-122" value="" style="html=1;points=[];perimeter=orthogonalPerimeter;outlineConnect=0;targetShapes=umlLifeline;portConstraint=eastwest;newEdgeStyle={&quot;edgeStyle&quot;:&quot;elbowEdgeStyle&quot;,&quot;elbow&quot;:&quot;vertical&quot;,&quot;curved&quot;:0,&quot;rounded&quot;:0};" parent="1kuVa8GH8NHrZ08HFkGU-121" vertex="1">
          <mxGeometry x="45" y="80" width="10" height="170" as="geometry" />
        </mxCell>
        <mxCell id="1kuVa8GH8NHrZ08HFkGU-123" value="findByID(operation)" style="html=1;verticalAlign=bottom;endArrow=block;edgeStyle=elbowEdgeStyle;elbow=vertical;curved=0;rounded=0;" parent="1" edge="1">
          <mxGeometry x="0.0033" relative="1" as="geometry">
            <mxPoint x="1550" y="260.28999999999996" as="sourcePoint" />
            <Array as="points" />
            <mxPoint x="1770" y="260" as="targetPoint" />
            <mxPoint as="offset" />
          </mxGeometry>
        </mxCell>
        <mxCell id="1kuVa8GH8NHrZ08HFkGU-124" value="Retiro Efectivo (withdraw)" style="html=1;verticalAlign=bottom;startArrow=oval;endArrow=block;startSize=8;edgeStyle=elbowEdgeStyle;elbow=vertical;curved=0;rounded=0;" parent="1" target="1kuVa8GH8NHrZ08HFkGU-115" edge="1">
          <mxGeometry x="0.0032" relative="1" as="geometry">
            <mxPoint x="1200" y="260" as="sourcePoint" />
            <Array as="points">
              <mxPoint x="1320" y="260" />
            </Array>
            <mxPoint as="offset" />
          </mxGeometry>
        </mxCell>
        <mxCell id="1kuVa8GH8NHrZ08HFkGU-125" value="Cliente" style="shape=umlActor;verticalLabelPosition=bottom;verticalAlign=top;html=1;outlineConnect=0;" parent="1" vertex="1">
          <mxGeometry x="1155" y="240" width="30" height="60" as="geometry" />
        </mxCell>
        <mxCell id="1kuVa8GH8NHrZ08HFkGU-126" value="Respuesta Cliente Ok" style="html=1;verticalAlign=bottom;endArrow=block;edgeStyle=elbowEdgeStyle;elbow=vertical;curved=0;rounded=0;dashed=1;" parent="1" edge="1" source="1kuVa8GH8NHrZ08HFkGU-114">
          <mxGeometry relative="1" as="geometry">
            <mxPoint x="1364" y="390" as="sourcePoint" />
            <Array as="points">
              <mxPoint x="1299" y="390" />
            </Array>
            <mxPoint x="1185" y="320" as="targetPoint" />
          </mxGeometry>
        </mxCell>
        <mxCell id="1kuVa8GH8NHrZ08HFkGU-127" value="RETIRO DE EFECTIVO&lt;br&gt;(accountservice)" style="rounded=0;whiteSpace=wrap;html=1;" parent="1" vertex="1">
          <mxGeometry x="1100" y="80" width="150" height="90" as="geometry" />
        </mxCell>
        <mxCell id="1kuVa8GH8NHrZ08HFkGU-128" value="response()" style="html=1;verticalAlign=bottom;endArrow=block;edgeStyle=elbowEdgeStyle;elbow=vertical;curved=0;rounded=0;dashed=1;" parent="1" edge="1">
          <mxGeometry relative="1" as="geometry">
            <mxPoint x="1765" y="300" as="sourcePoint" />
            <Array as="points">
              <mxPoint x="1480" y="300" />
            </Array>
            <mxPoint x="1560" y="303" as="targetPoint" />
          </mxGeometry>
        </mxCell>
        <mxCell id="1kuVa8GH8NHrZ08HFkGU-129" value="Error Saldo no disponible&amp;nbsp;&lt;div&gt;u otro motivo&lt;/div&gt;" style="html=1;verticalAlign=bottom;endArrow=block;edgeStyle=elbowEdgeStyle;elbow=vertical;curved=0;rounded=0;dashed=1;" parent="1" edge="1">
          <mxGeometry x="0.004" relative="1" as="geometry">
            <mxPoint x="1359" y="440" as="sourcePoint" />
            <Array as="points">
              <mxPoint x="1294" y="440" />
            </Array>
            <mxPoint x="1170" y="380" as="targetPoint" />
            <mxPoint as="offset" />
          </mxGeometry>
        </mxCell>
        <mxCell id="ObkUysp8yaRiNiQSAWPL-1" value="findByID(getbalance)" style="html=1;verticalAlign=bottom;endArrow=block;edgeStyle=elbowEdgeStyle;elbow=horizontal;curved=0;rounded=0;" edge="1" parent="1">
          <mxGeometry relative="1" as="geometry">
            <mxPoint x="505" y="170" as="sourcePoint" />
            <Array as="points">
              <mxPoint x="590" y="170" />
            </Array>
            <mxPoint x="680" y="171" as="targetPoint" />
          </mxGeometry>
        </mxCell>
        <mxCell id="ObkUysp8yaRiNiQSAWPL-2" value="getbalance(mapgetbalance)" style="html=1;verticalAlign=bottom;endArrow=block;edgeStyle=elbowEdgeStyle;elbow=vertical;curved=0;rounded=0;dashed=1;" edge="1" parent="1" target="aM9ryv3xv72pqoxQDRHE-1">
          <mxGeometry relative="1" as="geometry">
            <mxPoint x="500" y="210" as="sourcePoint" />
            <Array as="points">
              <mxPoint x="425" y="210" />
            </Array>
            <mxPoint x="340" y="211" as="targetPoint" />
          </mxGeometry>
        </mxCell>
        <mxCell id="ObkUysp8yaRiNiQSAWPL-4" value="response()" style="html=1;verticalAlign=bottom;endArrow=block;edgeStyle=elbowEdgeStyle;elbow=vertical;curved=0;rounded=0;dashed=1;" edge="1" parent="1">
          <mxGeometry relative="1" as="geometry">
            <mxPoint x="1550" y="330" as="sourcePoint" />
            <Array as="points" />
            <mxPoint x="1380" y="333" as="targetPoint" />
          </mxGeometry>
        </mxCell>
        <mxCell id="ObkUysp8yaRiNiQSAWPL-5" value="CONTROLLER" style="shape=umlLifeline;perimeter=lifelinePerimeter;whiteSpace=wrap;html=1;container=0;dropTarget=0;collapsible=0;recursiveResize=0;outlineConnect=0;portConstraint=eastwest;newEdgeStyle={&quot;edgeStyle&quot;:&quot;elbowEdgeStyle&quot;,&quot;elbow&quot;:&quot;vertical&quot;,&quot;curved&quot;:0,&quot;rounded&quot;:0};" vertex="1" parent="1">
          <mxGeometry x="1300" y="590" width="115" height="360" as="geometry" />
        </mxCell>
        <mxCell id="ObkUysp8yaRiNiQSAWPL-6" value="" style="html=1;points=[];perimeter=orthogonalPerimeter;outlineConnect=0;targetShapes=umlLifeline;portConstraint=eastwest;newEdgeStyle={&quot;edgeStyle&quot;:&quot;elbowEdgeStyle&quot;,&quot;elbow&quot;:&quot;vertical&quot;,&quot;curved&quot;:0,&quot;rounded&quot;:0};" vertex="1" parent="ObkUysp8yaRiNiQSAWPL-5">
          <mxGeometry x="45" y="70" width="10" height="190" as="geometry" />
        </mxCell>
        <mxCell id="ObkUysp8yaRiNiQSAWPL-7" value="" style="html=1;points=[];perimeter=orthogonalPerimeter;outlineConnect=0;targetShapes=umlLifeline;portConstraint=eastwest;newEdgeStyle={&quot;edgeStyle&quot;:&quot;elbowEdgeStyle&quot;,&quot;elbow&quot;:&quot;vertical&quot;,&quot;curved&quot;:0,&quot;rounded&quot;:0};" vertex="1" parent="ObkUysp8yaRiNiQSAWPL-5">
          <mxGeometry x="50" y="120" width="10" height="80" as="geometry" />
        </mxCell>
        <mxCell id="ObkUysp8yaRiNiQSAWPL-8" value="SERVICE" style="shape=umlLifeline;perimeter=lifelinePerimeter;whiteSpace=wrap;html=1;container=0;dropTarget=0;collapsible=0;recursiveResize=0;outlineConnect=0;portConstraint=eastwest;newEdgeStyle={&quot;edgeStyle&quot;:&quot;elbowEdgeStyle&quot;,&quot;elbow&quot;:&quot;vertical&quot;,&quot;curved&quot;:0,&quot;rounded&quot;:0};" vertex="1" parent="1">
          <mxGeometry x="1480" y="590" width="140" height="360" as="geometry" />
        </mxCell>
        <mxCell id="ObkUysp8yaRiNiQSAWPL-9" value="" style="html=1;points=[];perimeter=orthogonalPerimeter;outlineConnect=0;targetShapes=umlLifeline;portConstraint=eastwest;newEdgeStyle={&quot;edgeStyle&quot;:&quot;elbowEdgeStyle&quot;,&quot;elbow&quot;:&quot;vertical&quot;,&quot;curved&quot;:0,&quot;rounded&quot;:0};" vertex="1" parent="ObkUysp8yaRiNiQSAWPL-8">
          <mxGeometry x="45" y="80" width="10" height="170" as="geometry" />
        </mxCell>
        <mxCell id="ObkUysp8yaRiNiQSAWPL-10" value="deposit(accounid,amount)" style="html=1;verticalAlign=bottom;endArrow=block;edgeStyle=elbowEdgeStyle;elbow=vertical;curved=0;rounded=0;" edge="1" parent="1" source="ObkUysp8yaRiNiQSAWPL-6" target="ObkUysp8yaRiNiQSAWPL-9">
          <mxGeometry x="0.0017" relative="1" as="geometry">
            <mxPoint x="1470" y="680" as="sourcePoint" />
            <Array as="points">
              <mxPoint x="1455" y="670" />
            </Array>
            <mxPoint as="offset" />
          </mxGeometry>
        </mxCell>
        <mxCell id="ObkUysp8yaRiNiQSAWPL-11" value="REPOSTORY" style="shape=umlLifeline;perimeter=lifelinePerimeter;whiteSpace=wrap;html=1;container=0;dropTarget=0;collapsible=0;recursiveResize=0;outlineConnect=0;portConstraint=eastwest;newEdgeStyle={&quot;edgeStyle&quot;:&quot;elbowEdgeStyle&quot;,&quot;elbow&quot;:&quot;vertical&quot;,&quot;curved&quot;:0,&quot;rounded&quot;:0};" vertex="1" parent="1">
          <mxGeometry x="1700" y="590" width="135" height="360" as="geometry" />
        </mxCell>
        <mxCell id="ObkUysp8yaRiNiQSAWPL-12" value="" style="html=1;points=[];perimeter=orthogonalPerimeter;outlineConnect=0;targetShapes=umlLifeline;portConstraint=eastwest;newEdgeStyle={&quot;edgeStyle&quot;:&quot;elbowEdgeStyle&quot;,&quot;elbow&quot;:&quot;vertical&quot;,&quot;curved&quot;:0,&quot;rounded&quot;:0};" vertex="1" parent="ObkUysp8yaRiNiQSAWPL-11">
          <mxGeometry x="45" y="80" width="10" height="170" as="geometry" />
        </mxCell>
        <mxCell id="ObkUysp8yaRiNiQSAWPL-13" value="findByID(operation)" style="html=1;verticalAlign=bottom;endArrow=block;edgeStyle=elbowEdgeStyle;elbow=vertical;curved=0;rounded=0;" edge="1" parent="1">
          <mxGeometry x="0.0033" relative="1" as="geometry">
            <mxPoint x="1530" y="670.29" as="sourcePoint" />
            <Array as="points" />
            <mxPoint x="1750" y="670" as="targetPoint" />
            <mxPoint as="offset" />
          </mxGeometry>
        </mxCell>
        <mxCell id="ObkUysp8yaRiNiQSAWPL-14" value="Deposito Efectivo (withdraw)" style="html=1;verticalAlign=bottom;startArrow=oval;endArrow=block;startSize=8;edgeStyle=elbowEdgeStyle;elbow=vertical;curved=0;rounded=0;" edge="1" parent="1" target="ObkUysp8yaRiNiQSAWPL-6">
          <mxGeometry x="0.0032" relative="1" as="geometry">
            <mxPoint x="1180" y="670" as="sourcePoint" />
            <Array as="points">
              <mxPoint x="1300" y="670" />
            </Array>
            <mxPoint as="offset" />
          </mxGeometry>
        </mxCell>
        <mxCell id="ObkUysp8yaRiNiQSAWPL-15" value="Cliente" style="shape=umlActor;verticalLabelPosition=bottom;verticalAlign=top;html=1;outlineConnect=0;" vertex="1" parent="1">
          <mxGeometry x="1135" y="650" width="30" height="60" as="geometry" />
        </mxCell>
        <mxCell id="ObkUysp8yaRiNiQSAWPL-16" value="Respuesta Cliente Ok" style="html=1;verticalAlign=bottom;endArrow=block;edgeStyle=elbowEdgeStyle;elbow=vertical;curved=0;rounded=0;dashed=1;" edge="1" parent="1">
          <mxGeometry relative="1" as="geometry">
            <mxPoint x="1344" y="800" as="sourcePoint" />
            <Array as="points">
              <mxPoint x="1279" y="800" />
            </Array>
            <mxPoint x="1165" y="730" as="targetPoint" />
          </mxGeometry>
        </mxCell>
        <mxCell id="ObkUysp8yaRiNiQSAWPL-17" value="DEPOSITO DE EFECTIVO&lt;br&gt;(accountservice)" style="rounded=0;whiteSpace=wrap;html=1;" vertex="1" parent="1">
          <mxGeometry x="1080" y="490" width="150" height="90" as="geometry" />
        </mxCell>
        <mxCell id="ObkUysp8yaRiNiQSAWPL-18" value="response()" style="html=1;verticalAlign=bottom;endArrow=block;edgeStyle=elbowEdgeStyle;elbow=vertical;curved=0;rounded=0;dashed=1;" edge="1" parent="1">
          <mxGeometry relative="1" as="geometry">
            <mxPoint x="1745" y="710" as="sourcePoint" />
            <Array as="points">
              <mxPoint x="1460" y="710" />
            </Array>
            <mxPoint x="1540" y="713" as="targetPoint" />
          </mxGeometry>
        </mxCell>
        <mxCell id="ObkUysp8yaRiNiQSAWPL-19" value="Error&amp;nbsp;&amp;nbsp;&lt;div&gt;u otro motivo&lt;/div&gt;" style="html=1;verticalAlign=bottom;endArrow=block;edgeStyle=elbowEdgeStyle;elbow=vertical;curved=0;rounded=0;dashed=1;" edge="1" parent="1">
          <mxGeometry x="0.004" relative="1" as="geometry">
            <mxPoint x="1339" y="850" as="sourcePoint" />
            <Array as="points">
              <mxPoint x="1274" y="850" />
            </Array>
            <mxPoint x="1150" y="790" as="targetPoint" />
            <mxPoint as="offset" />
          </mxGeometry>
        </mxCell>
        <mxCell id="ObkUysp8yaRiNiQSAWPL-20" value="response()" style="html=1;verticalAlign=bottom;endArrow=block;edgeStyle=elbowEdgeStyle;elbow=vertical;curved=0;rounded=0;dashed=1;" edge="1" parent="1">
          <mxGeometry relative="1" as="geometry">
            <mxPoint x="1530" y="720" as="sourcePoint" />
            <Array as="points" />
            <mxPoint x="1360" y="723" as="targetPoint" />
          </mxGeometry>
        </mxCell>
        <mxCell id="ObkUysp8yaRiNiQSAWPL-21" value="response()" style="html=1;verticalAlign=bottom;endArrow=block;edgeStyle=elbowEdgeStyle;elbow=horizontal;curved=0;rounded=0;dashed=1;" edge="1" parent="1" source="J7sA12TsJqCwHjDUouRt-13">
          <mxGeometry relative="1" as="geometry">
            <mxPoint x="580" y="619" as="sourcePoint" />
            <Array as="points">
              <mxPoint x="460" y="619" />
            </Array>
            <mxPoint x="360" y="619" as="targetPoint" />
          </mxGeometry>
        </mxCell>
        <mxCell id="ObkUysp8yaRiNiQSAWPL-22" value="CONTROLLER" style="shape=umlLifeline;perimeter=lifelinePerimeter;whiteSpace=wrap;html=1;container=0;dropTarget=0;collapsible=0;recursiveResize=0;outlineConnect=0;portConstraint=eastwest;newEdgeStyle={&quot;edgeStyle&quot;:&quot;elbowEdgeStyle&quot;,&quot;elbow&quot;:&quot;vertical&quot;,&quot;curved&quot;:0,&quot;rounded&quot;:0};" vertex="1" parent="1">
          <mxGeometry x="1400" y="1050" width="115" height="360" as="geometry" />
        </mxCell>
        <mxCell id="ObkUysp8yaRiNiQSAWPL-23" value="" style="html=1;points=[];perimeter=orthogonalPerimeter;outlineConnect=0;targetShapes=umlLifeline;portConstraint=eastwest;newEdgeStyle={&quot;edgeStyle&quot;:&quot;elbowEdgeStyle&quot;,&quot;elbow&quot;:&quot;vertical&quot;,&quot;curved&quot;:0,&quot;rounded&quot;:0};" vertex="1" parent="ObkUysp8yaRiNiQSAWPL-22">
          <mxGeometry x="45" y="70" width="10" height="190" as="geometry" />
        </mxCell>
        <mxCell id="ObkUysp8yaRiNiQSAWPL-24" value="" style="html=1;points=[];perimeter=orthogonalPerimeter;outlineConnect=0;targetShapes=umlLifeline;portConstraint=eastwest;newEdgeStyle={&quot;edgeStyle&quot;:&quot;elbowEdgeStyle&quot;,&quot;elbow&quot;:&quot;vertical&quot;,&quot;curved&quot;:0,&quot;rounded&quot;:0};" vertex="1" parent="ObkUysp8yaRiNiQSAWPL-22">
          <mxGeometry x="50" y="120" width="10" height="80" as="geometry" />
        </mxCell>
        <mxCell id="ObkUysp8yaRiNiQSAWPL-25" value="SERVICE" style="shape=umlLifeline;perimeter=lifelinePerimeter;whiteSpace=wrap;html=1;container=0;dropTarget=0;collapsible=0;recursiveResize=0;outlineConnect=0;portConstraint=eastwest;newEdgeStyle={&quot;edgeStyle&quot;:&quot;elbowEdgeStyle&quot;,&quot;elbow&quot;:&quot;vertical&quot;,&quot;curved&quot;:0,&quot;rounded&quot;:0};" vertex="1" parent="1">
          <mxGeometry x="1640" y="1050" width="140" height="360" as="geometry" />
        </mxCell>
        <mxCell id="ObkUysp8yaRiNiQSAWPL-26" value="" style="html=1;points=[];perimeter=orthogonalPerimeter;outlineConnect=0;targetShapes=umlLifeline;portConstraint=eastwest;newEdgeStyle={&quot;edgeStyle&quot;:&quot;elbowEdgeStyle&quot;,&quot;elbow&quot;:&quot;vertical&quot;,&quot;curved&quot;:0,&quot;rounded&quot;:0};" vertex="1" parent="ObkUysp8yaRiNiQSAWPL-25">
          <mxGeometry x="45" y="80" width="10" height="170" as="geometry" />
        </mxCell>
        <mxCell id="ObkUysp8yaRiNiQSAWPL-27" value="consumeCredit(id,paymentamount)" style="html=1;verticalAlign=bottom;endArrow=block;edgeStyle=elbowEdgeStyle;elbow=vertical;curved=0;rounded=0;" edge="1" parent="1" source="ObkUysp8yaRiNiQSAWPL-23" target="ObkUysp8yaRiNiQSAWPL-26">
          <mxGeometry x="0.0017" relative="1" as="geometry">
            <mxPoint x="1570" y="1140" as="sourcePoint" />
            <Array as="points">
              <mxPoint x="1555" y="1130" />
            </Array>
            <mxPoint as="offset" />
          </mxGeometry>
        </mxCell>
        <mxCell id="ObkUysp8yaRiNiQSAWPL-28" value="REPOSTITORY" style="shape=umlLifeline;perimeter=lifelinePerimeter;whiteSpace=wrap;html=1;container=0;dropTarget=0;collapsible=0;recursiveResize=0;outlineConnect=0;portConstraint=eastwest;newEdgeStyle={&quot;edgeStyle&quot;:&quot;elbowEdgeStyle&quot;,&quot;elbow&quot;:&quot;vertical&quot;,&quot;curved&quot;:0,&quot;rounded&quot;:0};" vertex="1" parent="1">
          <mxGeometry x="1860" y="1050" width="135" height="360" as="geometry" />
        </mxCell>
        <mxCell id="ObkUysp8yaRiNiQSAWPL-29" value="" style="html=1;points=[];perimeter=orthogonalPerimeter;outlineConnect=0;targetShapes=umlLifeline;portConstraint=eastwest;newEdgeStyle={&quot;edgeStyle&quot;:&quot;elbowEdgeStyle&quot;,&quot;elbow&quot;:&quot;vertical&quot;,&quot;curved&quot;:0,&quot;rounded&quot;:0};" vertex="1" parent="ObkUysp8yaRiNiQSAWPL-28">
          <mxGeometry x="45" y="80" width="10" height="170" as="geometry" />
        </mxCell>
        <mxCell id="ObkUysp8yaRiNiQSAWPL-30" value="findById(operation)" style="html=1;verticalAlign=bottom;endArrow=block;edgeStyle=elbowEdgeStyle;elbow=vertical;curved=0;rounded=0;" edge="1" parent="1">
          <mxGeometry x="0.0033" relative="1" as="geometry">
            <mxPoint x="1690" y="1130.29" as="sourcePoint" />
            <Array as="points">
              <mxPoint x="1700" y="1130" />
            </Array>
            <mxPoint x="1910" y="1130" as="targetPoint" />
            <mxPoint as="offset" />
          </mxGeometry>
        </mxCell>
        <mxCell id="ObkUysp8yaRiNiQSAWPL-31" value="Consumo Producto de Credito (consumtion)" style="html=1;verticalAlign=bottom;startArrow=oval;endArrow=block;startSize=8;edgeStyle=elbowEdgeStyle;elbow=vertical;curved=0;rounded=0;" edge="1" parent="1" target="ObkUysp8yaRiNiQSAWPL-23">
          <mxGeometry x="0.0035" relative="1" as="geometry">
            <mxPoint x="1160" y="1120" as="sourcePoint" />
            <Array as="points">
              <mxPoint x="1280" y="1120" />
            </Array>
            <mxPoint as="offset" />
          </mxGeometry>
        </mxCell>
        <mxCell id="ObkUysp8yaRiNiQSAWPL-32" value="Cliente" style="shape=umlActor;verticalLabelPosition=bottom;verticalAlign=top;html=1;outlineConnect=0;" vertex="1" parent="1">
          <mxGeometry x="1115" y="1100" width="30" height="60" as="geometry" />
        </mxCell>
        <mxCell id="ObkUysp8yaRiNiQSAWPL-33" value="Respuesta Cliente Ok" style="html=1;verticalAlign=bottom;endArrow=block;edgeStyle=elbowEdgeStyle;elbow=vertical;curved=0;rounded=0;dashed=1;" edge="1" parent="1" source="ObkUysp8yaRiNiQSAWPL-22">
          <mxGeometry relative="1" as="geometry">
            <mxPoint x="1324" y="1250" as="sourcePoint" />
            <Array as="points">
              <mxPoint x="1259" y="1250" />
            </Array>
            <mxPoint x="1145" y="1180" as="targetPoint" />
          </mxGeometry>
        </mxCell>
        <mxCell id="ObkUysp8yaRiNiQSAWPL-34" value="CONSUMO TARJETA DE CREDITO&lt;div&gt;(creditservice)&lt;/div&gt;" style="rounded=0;whiteSpace=wrap;html=1;" vertex="1" parent="1">
          <mxGeometry x="1070" y="950" width="120" height="80" as="geometry" />
        </mxCell>
        <mxCell id="ObkUysp8yaRiNiQSAWPL-35" value="response()" style="html=1;verticalAlign=bottom;endArrow=block;edgeStyle=elbowEdgeStyle;elbow=vertical;curved=0;rounded=0;dashed=1;" edge="1" parent="1">
          <mxGeometry relative="1" as="geometry">
            <mxPoint x="1910" y="1169" as="sourcePoint" />
            <Array as="points">
              <mxPoint x="1790" y="1169" />
            </Array>
            <mxPoint x="1690" y="1169" as="targetPoint" />
          </mxGeometry>
        </mxCell>
        <mxCell id="ObkUysp8yaRiNiQSAWPL-36" value="Error Saldo no disponible&amp;nbsp;&lt;div&gt;u otro motivo&lt;/div&gt;" style="html=1;verticalAlign=bottom;endArrow=block;edgeStyle=elbowEdgeStyle;elbow=vertical;curved=0;rounded=0;dashed=1;" edge="1" parent="1" source="ObkUysp8yaRiNiQSAWPL-22">
          <mxGeometry x="0.004" relative="1" as="geometry">
            <mxPoint x="1319" y="1300" as="sourcePoint" />
            <Array as="points">
              <mxPoint x="1254" y="1300" />
            </Array>
            <mxPoint x="1130" y="1240" as="targetPoint" />
            <mxPoint as="offset" />
          </mxGeometry>
        </mxCell>
        <mxCell id="ObkUysp8yaRiNiQSAWPL-37" value="response()" style="html=1;verticalAlign=bottom;endArrow=block;edgeStyle=elbowEdgeStyle;elbow=horizontal;curved=0;rounded=0;dashed=1;" edge="1" parent="1" source="ObkUysp8yaRiNiQSAWPL-26">
          <mxGeometry relative="1" as="geometry">
            <mxPoint x="1670" y="1179" as="sourcePoint" />
            <Array as="points">
              <mxPoint x="1550" y="1179" />
            </Array>
            <mxPoint x="1450" y="1179" as="targetPoint" />
          </mxGeometry>
        </mxCell>
        <mxCell id="ObkUysp8yaRiNiQSAWPL-38" value="getTransactions()" style="html=1;verticalAlign=bottom;endArrow=block;edgeStyle=elbowEdgeStyle;elbow=vertical;curved=0;rounded=0;dashed=1;" edge="1" parent="1">
          <mxGeometry relative="1" as="geometry">
            <mxPoint x="800" y="1129.5" as="sourcePoint" />
            <Array as="points">
              <mxPoint x="680" y="1129.5" />
            </Array>
            <mxPoint x="580" y="1129.5" as="targetPoint" />
          </mxGeometry>
        </mxCell>
        <mxCell id="ObkUysp8yaRiNiQSAWPL-39" value="getTransactions()" style="html=1;verticalAlign=bottom;endArrow=block;edgeStyle=elbowEdgeStyle;elbow=vertical;curved=0;rounded=0;dashed=1;" edge="1" parent="1" source="1kuVa8GH8NHrZ08HFkGU-4">
          <mxGeometry relative="1" as="geometry">
            <mxPoint x="520" y="1129.5" as="sourcePoint" />
            <Array as="points">
              <mxPoint x="400" y="1129.5" />
            </Array>
            <mxPoint x="300" y="1129.5" as="targetPoint" />
          </mxGeometry>
        </mxCell>
        <mxCell id="ObkUysp8yaRiNiQSAWPL-56" value="CONTROLLER" style="shape=umlLifeline;perimeter=lifelinePerimeter;whiteSpace=wrap;html=1;container=0;dropTarget=0;collapsible=0;recursiveResize=0;outlineConnect=0;portConstraint=eastwest;newEdgeStyle={&quot;edgeStyle&quot;:&quot;elbowEdgeStyle&quot;,&quot;elbow&quot;:&quot;vertical&quot;,&quot;curved&quot;:0,&quot;rounded&quot;:0};" vertex="1" parent="1">
          <mxGeometry x="480" y="1420" width="110" height="300" as="geometry" />
        </mxCell>
        <mxCell id="ObkUysp8yaRiNiQSAWPL-57" value="" style="html=1;points=[];perimeter=orthogonalPerimeter;outlineConnect=0;targetShapes=umlLifeline;portConstraint=eastwest;newEdgeStyle={&quot;edgeStyle&quot;:&quot;elbowEdgeStyle&quot;,&quot;elbow&quot;:&quot;vertical&quot;,&quot;curved&quot;:0,&quot;rounded&quot;:0};" vertex="1" parent="ObkUysp8yaRiNiQSAWPL-56">
          <mxGeometry x="45" y="70" width="10" height="180" as="geometry" />
        </mxCell>
        <mxCell id="ObkUysp8yaRiNiQSAWPL-58" value="SERVICE" style="shape=umlLifeline;perimeter=lifelinePerimeter;whiteSpace=wrap;html=1;container=0;dropTarget=0;collapsible=0;recursiveResize=0;outlineConnect=0;portConstraint=eastwest;newEdgeStyle={&quot;edgeStyle&quot;:&quot;elbowEdgeStyle&quot;,&quot;elbow&quot;:&quot;vertical&quot;,&quot;curved&quot;:0,&quot;rounded&quot;:0};" vertex="1" parent="1">
          <mxGeometry x="740" y="1420" width="130" height="300" as="geometry" />
        </mxCell>
        <mxCell id="ObkUysp8yaRiNiQSAWPL-59" value="" style="html=1;points=[];perimeter=orthogonalPerimeter;outlineConnect=0;targetShapes=umlLifeline;portConstraint=eastwest;newEdgeStyle={&quot;edgeStyle&quot;:&quot;elbowEdgeStyle&quot;,&quot;elbow&quot;:&quot;vertical&quot;,&quot;curved&quot;:0,&quot;rounded&quot;:0};" vertex="1" parent="ObkUysp8yaRiNiQSAWPL-58">
          <mxGeometry x="60" y="80" width="10" height="60" as="geometry" />
        </mxCell>
        <mxCell id="ObkUysp8yaRiNiQSAWPL-60" value="createBankAccountPersonalType(cuentaId)" style="html=1;verticalAlign=bottom;endArrow=block;edgeStyle=elbowEdgeStyle;elbow=horizontal;curved=0;rounded=0;" edge="1" parent="1" source="ObkUysp8yaRiNiQSAWPL-57" target="ObkUysp8yaRiNiQSAWPL-59">
          <mxGeometry relative="1" as="geometry">
            <mxPoint x="635" y="1510" as="sourcePoint" />
            <Array as="points">
              <mxPoint x="620" y="1500" />
            </Array>
          </mxGeometry>
        </mxCell>
        <mxCell id="ObkUysp8yaRiNiQSAWPL-61" value="REPOSITORY" style="shape=umlLifeline;perimeter=lifelinePerimeter;whiteSpace=wrap;html=1;container=0;dropTarget=0;collapsible=0;recursiveResize=0;outlineConnect=0;portConstraint=eastwest;newEdgeStyle={&quot;edgeStyle&quot;:&quot;elbowEdgeStyle&quot;,&quot;elbow&quot;:&quot;vertical&quot;,&quot;curved&quot;:0,&quot;rounded&quot;:0};" vertex="1" parent="1">
          <mxGeometry x="970" y="1420" width="130" height="300" as="geometry" />
        </mxCell>
        <mxCell id="ObkUysp8yaRiNiQSAWPL-62" value="" style="html=1;points=[];perimeter=orthogonalPerimeter;outlineConnect=0;targetShapes=umlLifeline;portConstraint=eastwest;newEdgeStyle={&quot;edgeStyle&quot;:&quot;elbowEdgeStyle&quot;,&quot;elbow&quot;:&quot;vertical&quot;,&quot;curved&quot;:0,&quot;rounded&quot;:0};" vertex="1" parent="ObkUysp8yaRiNiQSAWPL-61">
          <mxGeometry x="45" y="80" width="10" height="70" as="geometry" />
        </mxCell>
        <mxCell id="ObkUysp8yaRiNiQSAWPL-63" value="Crear Cuenta para cliente personal (createBankAccountPersonalType)" style="html=1;verticalAlign=bottom;startArrow=oval;endArrow=block;startSize=8;edgeStyle=elbowEdgeStyle;elbow=vertical;curved=0;rounded=0;" edge="1" parent="1" target="ObkUysp8yaRiNiQSAWPL-57">
          <mxGeometry relative="1" as="geometry">
            <mxPoint x="100" y="1490" as="sourcePoint" />
          </mxGeometry>
        </mxCell>
        <mxCell id="ObkUysp8yaRiNiQSAWPL-64" value="Cliente" style="shape=umlActor;verticalLabelPosition=bottom;verticalAlign=top;html=1;outlineConnect=0;" vertex="1" parent="1">
          <mxGeometry x="50" y="1480" width="30" height="60" as="geometry" />
        </mxCell>
        <mxCell id="ObkUysp8yaRiNiQSAWPL-65" value="Respuesta Ok" style="html=1;verticalAlign=bottom;endArrow=block;edgeStyle=elbowEdgeStyle;elbow=vertical;curved=0;rounded=0;dashed=1;" edge="1" parent="1" source="ObkUysp8yaRiNiQSAWPL-56">
          <mxGeometry relative="1" as="geometry">
            <mxPoint x="314" y="1530" as="sourcePoint" />
            <Array as="points">
              <mxPoint x="249" y="1530" />
            </Array>
            <mxPoint x="100" y="1530" as="targetPoint" />
          </mxGeometry>
        </mxCell>
        <mxCell id="ObkUysp8yaRiNiQSAWPL-66" value="CREAR CUENTA PARA CLIENTE PERSONAL&lt;div&gt;(accountservice)&lt;/div&gt;" style="rounded=0;whiteSpace=wrap;html=1;" vertex="1" parent="1">
          <mxGeometry x="40" y="1380" width="120" height="70" as="geometry" />
        </mxCell>
        <mxCell id="ObkUysp8yaRiNiQSAWPL-67" value="Error u&amp;nbsp;&lt;div&gt;u otro motivo&lt;/div&gt;" style="html=1;verticalAlign=bottom;endArrow=block;edgeStyle=elbowEdgeStyle;elbow=vertical;curved=0;rounded=0;dashed=1;" edge="1" parent="1" source="ObkUysp8yaRiNiQSAWPL-56">
          <mxGeometry x="0.004" relative="1" as="geometry">
            <mxPoint x="329" y="1660" as="sourcePoint" />
            <Array as="points">
              <mxPoint x="264" y="1660" />
            </Array>
            <mxPoint x="90" y="1590" as="targetPoint" />
            <mxPoint as="offset" />
          </mxGeometry>
        </mxCell>
        <mxCell id="ObkUysp8yaRiNiQSAWPL-68" value="Mono(AccounProduct)" style="html=1;verticalAlign=bottom;endArrow=block;edgeStyle=elbowEdgeStyle;elbow=horizontal;curved=0;rounded=0;dashed=1;" edge="1" parent="1" target="ObkUysp8yaRiNiQSAWPL-58">
          <mxGeometry relative="1" as="geometry">
            <mxPoint x="1010" y="1540" as="sourcePoint" />
            <Array as="points">
              <mxPoint x="935" y="1540" />
            </Array>
            <mxPoint x="850" y="1541" as="targetPoint" />
          </mxGeometry>
        </mxCell>
        <mxCell id="ObkUysp8yaRiNiQSAWPL-69" value="findByHolderContainsandType(getbalance)" style="html=1;verticalAlign=bottom;endArrow=block;edgeStyle=elbowEdgeStyle;elbow=horizontal;curved=0;rounded=0;" edge="1" parent="1" source="ObkUysp8yaRiNiQSAWPL-58">
          <mxGeometry relative="1" as="geometry">
            <mxPoint x="845" y="1500" as="sourcePoint" />
            <Array as="points">
              <mxPoint x="930" y="1500" />
            </Array>
            <mxPoint x="1020" y="1501" as="targetPoint" />
          </mxGeometry>
        </mxCell>
        <mxCell id="ObkUysp8yaRiNiQSAWPL-70" value="getresponse(mapAccountProduct)" style="html=1;verticalAlign=bottom;endArrow=block;edgeStyle=elbowEdgeStyle;elbow=horizontal;curved=0;rounded=0;dashed=1;" edge="1" parent="1" target="ObkUysp8yaRiNiQSAWPL-56" source="ObkUysp8yaRiNiQSAWPL-58">
          <mxGeometry relative="1" as="geometry">
            <mxPoint x="710" y="1540" as="sourcePoint" />
            <Array as="points">
              <mxPoint x="635" y="1540" />
            </Array>
            <mxPoint x="550" y="1541" as="targetPoint" />
          </mxGeometry>
        </mxCell>
      </root>
    </mxGraphModel>
  </diagram>
</mxfile>
